<?xml version="1.0" standalone="no"?><!DOCTYPE svg PUBLIC "-//W3C//DTD SVG 1.1//EN" "http://www.w3.org/Graphics/SVG/1.1/DTD/svg11.dtd"><svg class="icon" height="512" viewBox="0 0 1025 1024" version="1.1" xmlns="http://www.w3.org/2000/svg"><path d="M512.003157 1024C229.647778 1024 0 794.352222 0 512.003157 0 229.761441 229.647778 0 512.003157 0c282.298548 0 512.003157 229.761441 512.003157 512.003157C1024.006315 794.352222 794.301705 1024 512.003157 1024zM512.003157 64.825234c-246.589733 0-447.171609 200.588191-447.171609 447.177924s200.588191 447.171609 447.171609 447.171609c246.532902 0 447.121093-200.588191 447.121093-447.171609S758.536059 64.825234 512.003157 64.825234zM547.415188 639.999211 547.415188 237.648321c0-19.530922-15.887423-35.412031-35.412031-35.412031s-35.412031 15.881109-35.412031 35.412031l0 402.35089c0 19.530922 15.881109 35.412031 35.412031 35.412031S547.415188 659.530133 547.415188 639.999211zM555.946154 777.883859c0-24.235267-19.70773-43.999827-43.942996-43.999827s-43.968255 19.764561-43.968255 43.999827 19.732988 43.879851 43.968255 43.879851S555.946154 802.119126 555.946154 777.883859z" /></svg>